<svg width="18" height="17" viewBox="0 0 18 17" fill="none" xmlns="http://www.w3.org/2000/svg">
<path d="M1.29289 14.435L0.585786 15.1421L2 16.5563L2.70711 15.8492L1.29289 14.435ZM17.1421 0.999954C17.1421 0.447669 16.6944 -4.57987e-05 16.1421 -4.60516e-05L7.14214 -4.59252e-05C6.58985 -4.5588e-05 6.14214 0.447669 6.14214 0.999954C6.14214 1.55224 6.58985 1.99995 7.14214 1.99995L15.1421 1.99995L15.1421 9.99995C15.1421 10.5522 15.5899 11 16.1421 11C16.6944 11 17.1421 10.5522 17.1421 9.99995L17.1421 0.999954ZM2.70711 15.8492L16.8492 1.70706L15.435 0.292848L1.29289 14.435L2.70711 15.8492Z" fill="white"/>
</svg>
