<svg width="10" height="8" viewBox="0 0 10 8" fill="none" xmlns="http://www.w3.org/2000/svg">
<path d="M3.41445 5.97216L8.88627 0.687083C9.0154 0.562361 9.16884 0.5 9.34661 0.5C9.52438 0.5 9.67761 0.562361 9.80631 0.687083C9.93544 0.811804 10 0.960015 10 1.13171C10 1.30342 9.93544 1.45142 9.80631 1.57572L3.8664 7.31292C3.73727 7.43764 3.58662 7.5 3.41445 7.5C3.24228 7.5 3.09163 7.43764 2.9625 7.31292L0.186243 4.6314C0.0571146 4.50668 -0.00486715 4.35847 0.000297988 4.18677C0.00546312 4.01507 0.0728249 3.86707 0.202384 3.74276C0.331512 3.61804 0.48496 3.55568 0.662727 3.55568C0.840493 3.55568 0.993726 3.61804 1.12242 3.74276L3.41445 5.97216Z" fill="#7C0A4D"/>
</svg>
