<svg width="24" height="25" viewBox="0 0 24 25" fill="none" xmlns="http://www.w3.org/2000/svg">
<g clip-path="url(#clip0_226_3402)">
<path d="M12 3.5C14.1217 3.5 16.1566 4.34633 17.6569 5.8528C19.1571 7.35927 20 9.40248 20 11.5329C20 14.2766 18.5102 16.5223 16.9404 18.1334C16.1562 18.9296 15.3004 19.6514 14.384 20.2898L14.0053 20.5486L13.8276 20.6673L13.4924 20.8815L13.1938 21.0645L12.824 21.2805C12.573 21.4243 12.289 21.5 12 21.5C11.711 21.5 11.427 21.4243 11.176 21.2805L10.8062 21.0645L10.344 20.7789L10.1733 20.6673L9.80889 20.4236C8.82029 19.752 7.89947 18.9849 7.05956 18.1334C5.48978 16.5214 4 14.2766 4 11.5329C4 9.40248 4.84285 7.35927 6.34315 5.8528C7.84344 4.34633 9.87827 3.5 12 3.5ZM12 8.8553C11.6498 8.8553 11.303 8.92456 10.9795 9.05912C10.656 9.19369 10.362 9.39092 10.1144 9.63956C9.86676 9.88821 9.67033 10.1834 9.53632 10.5083C9.40231 10.8331 9.33333 11.1813 9.33333 11.5329C9.33333 11.8846 9.40231 12.2328 9.53632 12.5576C9.67033 12.8825 9.86676 13.1777 10.1144 13.4263C10.362 13.675 10.656 13.8722 10.9795 14.0068C11.303 14.1413 11.6498 14.2106 12 14.2106C12.7072 14.2106 13.3855 13.9285 13.8856 13.4263C14.3857 12.9242 14.6667 12.2431 14.6667 11.5329C14.6667 10.8228 14.3857 10.1417 13.8856 9.63956C13.3855 9.13741 12.7072 8.8553 12 8.8553Z" fill="white"/>
</g>
<defs>
<clipPath id="clip0_226_3402">
<rect width="24" height="24" fill="white" transform="translate(0 0.5)"/>
</clipPath>
</defs>
</svg>
