<svg width="24" height="25" viewBox="0 0 24 25" fill="none" xmlns="http://www.w3.org/2000/svg">
<path d="M12 4.25C16.5565 4.25 20.25 7.94353 20.25 12.5C20.25 17.0565 16.5565 20.75 12 20.75C7.44353 20.75 3.75 17.0565 3.75 12.5C3.75 7.94353 7.44353 4.25 12 4.25ZM12 7.55C11.7812 7.55 11.5714 7.63692 11.4166 7.79164C11.2619 7.94635 11.175 8.1562 11.175 8.375V12.5C11.175 12.7188 11.262 12.9286 11.4167 13.0833L13.8917 15.5583C14.0473 15.7086 14.2557 15.7917 14.472 15.7898C14.6883 15.788 14.8953 15.7012 15.0482 15.5482C15.2012 15.3953 15.288 15.1883 15.2898 14.972C15.2917 14.7557 15.2086 14.5473 15.0583 14.3917L12.825 12.1585V8.375C12.825 8.1562 12.7381 7.94635 12.5834 7.79164C12.4286 7.63692 12.2188 7.55 12 7.55Z" fill="white"/>
</svg>
