<svg width="10" height="7" viewBox="0 0 10 7" fill="none" xmlns="http://www.w3.org/2000/svg">
<path d="M3.41445 5.47216L8.88627 0.187083C9.0154 0.0623609 9.16884 0 9.34661 0C9.52438 0 9.67761 0.0623609 9.80631 0.187083C9.93544 0.311804 10 0.460015 10 0.631715C10 0.803415 9.93544 0.951418 9.80631 1.07572L3.8664 6.81292C3.73727 6.93764 3.58662 7 3.41445 7C3.24228 7 3.09163 6.93764 2.9625 6.81292L0.186243 4.1314C0.0571146 4.00668 -0.00486715 3.85847 0.000297988 3.68677C0.00546312 3.51507 0.0728249 3.36707 0.202384 3.24276C0.331512 3.11804 0.48496 3.05568 0.662727 3.05568C0.840493 3.05568 0.993726 3.11804 1.12242 3.24276L3.41445 5.47216Z" fill="white"/>
</svg>
