<svg width="24" height="24" viewBox="0 0 24 24" fill="none" xmlns="http://www.w3.org/2000/svg">
<path d="M7.21029 10.9982L8.40188 9.76401L10.8939 12.2561L11.15 12.5121V12.15V4.15H12.85V12.15V12.5121L13.1061 12.2561L15.5981 9.76401L16.7897 10.9982L12 15.7879L7.21029 10.9982ZM4.15 17.9998L4.15 15.15H5.85V18V18.15H6H18H18.15V18V15.15H19.85V18C19.85 18.5099 19.6703 18.9429 19.3068 19.307C18.9435 19.671 18.5107 19.8506 18.0002 19.85H18H6C5.49006 19.85 5.05747 19.6703 4.69407 19.3069C4.33066 18.9435 4.15062 18.5105 4.15 17.9998Z" fill="white" stroke="#101010" stroke-width="0.3"/>
</svg>
