<svg width="28" height="28" viewBox="0 0 28 28" fill="none" xmlns="http://www.w3.org/2000/svg">
<path d="M26.8749 22.7486H23.8091C22.6496 22.7486 22.3003 21.7606 20.222 19.5727C18.4056 17.731 17.6385 17.502 17.179 17.502C16.5436 17.502 16.3702 17.6858 16.3702 18.6059V21.5062C16.3702 22.2906 16.1284 22.75 14.1804 22.75C12.2905 22.6164 10.4578 22.0124 8.83331 20.9877C7.20879 19.963 5.83891 18.5469 4.83651 16.8561C2.45723 13.739 0.80126 10.0814 0 6.1736C0 5.69022 0.174652 5.25206 1.0506 5.25206H4.11372C4.901 5.25206 5.18447 5.62096 5.49347 6.47324C6.9807 11.0781 9.51852 15.0837 10.549 15.0837C10.9439 15.0837 11.1159 14.9 11.1159 13.8639V9.12055C10.9856 6.95663 9.89335 6.7743 9.89335 5.99127C9.90717 5.78469 9.99699 5.59191 10.1437 5.45389C10.2905 5.31586 10.4826 5.24346 10.6793 5.25206H15.4943C16.1526 5.25206 16.3702 5.59693 16.3702 6.42519V12.8279C16.3702 13.5191 16.6524 13.748 16.8512 13.748C17.2462 13.748 17.5498 13.5191 18.2739 12.7586C19.8255 10.7667 21.0936 8.54799 22.0384 6.17219C22.1346 5.88663 22.3172 5.64215 22.5582 5.47621C22.7991 5.31027 23.0852 5.23203 23.3724 5.25347H26.4369C27.3558 5.25347 27.5506 5.73686 27.3558 6.4266C26.2409 9.05312 24.8618 11.5465 23.2421 13.8639C22.9116 14.394 22.78 14.6696 23.2421 15.2915C23.5457 15.7749 24.6205 16.719 25.342 17.6165C26.3926 18.719 27.2645 19.9939 27.9241 21.3903C28.1874 22.2892 27.7495 22.7486 26.8749 22.7486Z" fill="white"/>
</svg>
