<svg width="32" height="32" viewBox="0 0 32 32" fill="none" xmlns="http://www.w3.org/2000/svg">
<path d="M13.8102 2.1898L2.18978 13.8102C0.980397 15.0196 0.980397 16.9804 2.18978 18.1898L13.8102 29.8102C15.0196 31.0196 16.9804 31.0196 18.1898 29.8102L29.8102 18.1898C31.0196 16.9804 31.0196 15.0196 29.8102 13.8102L18.1898 2.1898C16.9804 0.980415 15.0196 0.980416 13.8102 2.1898Z" fill="white"/>
<path d="M16.0346 25.1629C21.0954 25.1629 25.198 21.0603 25.198 15.9994C25.198 10.9386 21.0954 6.83594 16.0346 6.83594C10.9737 6.83594 6.87109 10.9386 6.87109 15.9994C6.87109 21.0603 10.9737 25.1629 16.0346 25.1629Z" fill="#101010"/>
<path d="M18.7474 10.2734H13.4054C11.6951 10.2734 10.3086 11.6599 10.3086 13.3703V18.7123C10.3086 20.4226 11.6951 21.8091 13.4054 21.8091H18.7474C20.4577 21.8091 21.8442 20.4226 21.8442 18.7123V13.3703C21.8442 11.6599 20.4577 10.2734 18.7474 10.2734Z" fill="white"/>
<path d="M16.0202 19.9778C18.2253 19.9778 20.013 18.1902 20.013 15.985C20.013 13.7798 18.2253 11.9922 16.0202 11.9922C13.815 11.9922 12.0273 13.7798 12.0273 15.985C12.0273 18.1902 13.815 19.9778 16.0202 19.9778Z" fill="#101010"/>
<path d="M15.4203 14.9L15.0502 15.2701C14.6471 15.6732 14.6471 16.3268 15.0502 16.7299L15.4203 17.1C15.8234 17.5031 16.477 17.5031 16.8802 17.1L17.2502 16.7299C17.6534 16.3268 17.6534 15.6732 17.2502 15.2701L16.8802 14.9C16.477 14.4969 15.8234 14.4969 15.4203 14.9Z" fill="white"/>
</svg>
