<svg width="20" height="20" viewBox="0 0 20 20" fill="none" xmlns="http://www.w3.org/2000/svg">
<path d="M17.5 6.74512V13.6467C17.5 14.2046 17.2808 14.7415 16.887 15.1475C16.4933 15.5535 15.9549 15.7978 15.382 15.8305L15.25 15.8342H4.75C4.17609 15.8342 3.62386 15.621 3.2063 15.2382C2.78874 14.8555 2.53742 14.332 2.50375 13.775L2.5 13.6467V6.74512L9.58375 11.3367L9.67075 11.3848C9.77328 11.4335 9.88589 11.4588 10 11.4588C10.1141 11.4588 10.2267 11.4335 10.3293 11.3848L10.4163 11.3367L17.5 6.74512Z" fill="white" fill-opacity="0.8"/>
<path d="M15.2483 4.16699C16.0583 4.16699 16.7685 4.58262 17.1645 5.20751L9.99828 9.85231L2.83203 5.20751C3.02013 4.91061 3.2785 4.66173 3.58561 4.48162C3.89272 4.30151 4.23967 4.19538 4.59753 4.1721L4.74828 4.16699H15.2483Z" fill="white" fill-opacity="0.8"/>
</svg>
