<svg width="28" height="28" viewBox="0 0 28 28" fill="none" xmlns="http://www.w3.org/2000/svg">
<path d="M11.2 18.2497L18.466 13.9997L11.2 9.74967V18.2497ZM27.384 7.15717C27.566 7.82301 27.692 8.71551 27.776 9.84884C27.874 10.9822 27.916 11.9597 27.916 12.8097L28 13.9997C28 17.1022 27.776 19.383 27.384 20.8422C27.034 22.1172 26.222 22.9388 24.962 23.293C24.304 23.4772 23.1 23.6047 21.252 23.6897C19.432 23.7888 17.766 23.8313 16.226 23.8313L14 23.9163C8.134 23.9163 4.48 23.6897 3.038 23.293C1.778 22.9388 0.966 22.1172 0.616 20.8422C0.434 20.1763 0.308 19.2838 0.224 18.1505C0.126 17.0172 0.0839999 16.0397 0.0839999 15.1897L0 13.9997C0 10.8972 0.224 8.61634 0.616 7.15717C0.966 5.88217 1.778 5.06051 3.038 4.70634C3.696 4.52217 4.9 4.39467 6.748 4.30967C8.568 4.21051 10.234 4.16801 11.774 4.16801L14 4.08301C19.866 4.08301 23.52 4.30967 24.962 4.70634C26.222 5.06051 27.034 5.88217 27.384 7.15717Z" fill="white"/>
</svg>
