<svg width="20" height="20" viewBox="0 0 20 20" fill="none" xmlns="http://www.w3.org/2000/svg">
<g clip-path="url(#clip0_986_3343)">
<path d="M10 2.5C11.7239 2.5 13.3772 3.20527 14.5962 4.46066C15.8152 5.71606 16.5 7.41873 16.5 9.19412C16.5 11.4805 15.2896 13.3519 14.0141 14.6945C13.3769 15.358 12.6816 15.9595 11.937 16.4915L11.6293 16.7072L11.4849 16.8061L11.2126 16.9846L10.9699 17.1371L10.6695 17.3171C10.4656 17.437 10.2348 17.5 10 17.5C9.76519 17.5 9.53443 17.437 9.3305 17.3171L9.03006 17.1371L8.6545 16.8991L8.51583 16.8061L8.21972 16.603C7.41649 16.0433 6.66832 15.4041 5.98589 14.6945C4.71044 13.3512 3.5 11.4805 3.5 9.19412C3.5 7.41873 4.18482 5.71606 5.40381 4.46066C6.62279 3.20527 8.27609 2.5 10 2.5ZM10 6.96275C9.71547 6.96275 9.43372 7.02047 9.17085 7.1326C8.90798 7.24474 8.66913 7.4091 8.46794 7.6163C8.26674 7.82351 8.10715 8.06949 7.99826 8.34021C7.88938 8.61094 7.83333 8.9011 7.83333 9.19412C7.83333 9.48715 7.88938 9.77731 7.99826 10.048C8.10715 10.3188 8.26674 10.5647 8.46794 10.7719C8.66913 10.9791 8.90798 11.1435 9.17085 11.2556C9.43372 11.3678 9.71547 11.4255 10 11.4255C10.5746 11.4255 11.1257 11.1904 11.5321 10.7719C11.9384 10.3535 12.1667 9.78592 12.1667 9.19412C12.1667 8.60233 11.9384 8.03477 11.5321 7.6163C11.1257 7.19784 10.5746 6.96275 10 6.96275Z" fill="white" fill-opacity="0.8"/>
</g>
<defs>
<clipPath id="clip0_986_3343">
<rect width="20" height="20" fill="white"/>
</clipPath>
</defs>
</svg>
