<svg width="20" height="20" viewBox="0 0 20 20" fill="none" xmlns="http://www.w3.org/2000/svg">
<path d="M3.25846 8.47855C5.00759 12.289 8.11494 15.3092 11.9723 16.9479L12.5918 17.2241C13.2777 17.5298 14.0494 17.5833 14.771 17.3754C15.4926 17.1675 16.1176 16.7114 16.536 16.0875L17.3458 14.8807C17.4726 14.6915 17.5239 14.4616 17.4896 14.2364C17.4554 14.0112 17.3381 13.8069 17.1609 13.6639L14.4172 11.449C14.3217 11.372 14.2116 11.315 14.0934 11.2816C13.9753 11.2481 13.8517 11.2389 13.73 11.2545C13.6082 11.2701 13.4909 11.3101 13.385 11.3722C13.2791 11.4343 13.1868 11.5172 13.1137 11.6158L12.2647 12.7616C10.0855 11.6846 8.32147 9.91923 7.24556 7.73844L8.38968 6.88894C8.48828 6.81581 8.5711 6.72349 8.63315 6.61753C8.6952 6.51157 8.73522 6.39415 8.75079 6.27233C8.76636 6.15051 8.75716 6.02679 8.72375 5.90862C8.69034 5.79044 8.63341 5.68024 8.55638 5.58463L6.34284 2.83927C6.19991 2.66195 5.99581 2.54461 5.77072 2.51036C5.54564 2.47611 5.3159 2.52745 5.12676 2.65425L3.9125 3.4691C3.28524 3.89 2.82768 4.52004 2.62132 5.24699C2.41496 5.97393 2.47321 6.75058 2.78569 7.43856L3.25846 8.47855Z" fill="white" fill-opacity="0.8"/>
</svg>
