<svg width="28" height="28" viewBox="0 0 28 28" fill="none" xmlns="http://www.w3.org/2000/svg">
<path fill-rule="evenodd" clip-rule="evenodd" d="M22.7212 4.13683C22.9917 4.01567 23.2877 3.97389 23.5786 4.01582C23.8694 4.05775 24.1443 4.18187 24.3748 4.37525C24.6052 4.56863 24.7827 4.8242 24.8889 5.11537C24.995 5.40654 25.0259 5.72266 24.9782 6.03083L22.4957 22.0553C22.2549 23.601 20.6611 24.4875 19.329 23.7175C18.2147 23.0734 16.5597 22.0809 15.0711 21.0454C14.3267 20.5271 12.0467 18.8672 12.3269 17.6861C12.5677 16.6762 16.3988 12.8812 18.588 10.6249C19.4472 9.73847 19.0554 9.22711 18.0407 10.0425C15.5209 12.0669 11.4753 15.1456 10.1377 16.0122C8.95775 16.7763 8.34259 16.9068 7.60702 16.7763C6.26505 16.5387 5.0205 16.1706 4.00471 15.7222C2.63209 15.1165 2.69886 13.1083 4.00362 12.5236L22.7212 4.13683Z" fill="white"/>
</svg>
